# xmcd
#
# Track frame offsets:
#	150
#	24600
#	46902
#
# Disc length: 952 seconds
#
# Revision: 1
# Processed by: cddbd v1.5.1PL0 Copyright (c) Steve Scherf et al.
# Submitted via: CDex 1.50Beta5
#
DISCID=1c03b603
DTITLE=伊藤賢一 - "I" Novel 〜Page 2〜
DYEAR=2003
DGENRE=Pop
TTITLE0=Jamming
TTITLE1=Shelter
TTITLE2=Jamming (Instrumental)
EXTD=
EXTT0=
EXTT1=
EXTT2=
PLAYORDER=
